<?xml version="1.0" encoding="UTF-8" standalone="no"?>
<svg xmlns="http://www.w3.org/2000/svg" viewBox="0 0 161.6 161.6" version="1.1">
  <g class="jp-icon-warn0 jp-icon-selectable" fill="#f08705">
    <path d="m 161.6,154.7 c 0,3.9 -3.2,6.9 -6.9,6.9 H 6.9 C 3,161.6 0,158.4 0,154.7 V 6.9 C 0,3 3.2,0 6.9,0 h 147.8 c 3.9,0 6.9,3.2 6.9,6.9 z" />
  </g>
  <g class="jp-icon-selectable" fill="rgba(0,0,0,0.1)">
    <path d="m 161.6,154.7 c 0,3.9 -3.2,6.9 -6.9,6.9 H 55.3 l -32.2,-32.7 20,-32.7 59.4,-73.8 58.9,60.7 z"/>
  </g>
  <g class="jp-icon-accent0 jp-icon-selectable-inverse" fill="#ffffff">
    <path d="m 132.7,90.3 h -17 l -18,-30.6 c 4,-0.8 7,-4.4 7,-8.6 V 28 c 0,-4.9 -3.9,-8.8 -8.8,-8.8 h -30 c -4.9,0 -8.8,3.9 -8.8,8.8 v 23.1 c 0,4.3 3,7.8 6.9,8.6 L 46,90.4 H 29 c -4.9,0 -8.8,3.9 -8.8,8.8 v 23.1 c 0,4.9 3.9,8.8 8.8,8.8 h 30 c 4.9,0 8.8,-3.9 8.8,-8.8 V 99.2 c 0,-4.9 -3.9,-8.8 -8.8,-8.8 H 56.1 L 73.9,60 h 13.9 l 17.9,30.4 h -3 c -4.9,0 -8.8,3.9 -8.8,8.8 v 23.1 c 0,4.9 3.9,8.8 8.8,8.8 h 30 c 4.9,0 8.8,-3.9 8.8,-8.8 V 99.2 c 0,-4.9 -3.9,-8.9 -8.8,-8.9 z"/>
  </g>
</svg>
