<svg width="16" height="16" version="1.1" viewBox="0 0 20 20" xmlns="http://www.w3.org/2000/svg">
  <g class="jp-icon3" fill="#616161">
    <path d="M12 14a2 2 0 0 1 2-2h3a2 2 0 0 1 2 2v3a2 2 0 0 1-2 2h-3a2 2 0 0 1-2-2v-3zm2-1a1 1 0 0 0-1 1v3a1 1 0 0 0 1 1h3a1 1 0 0 0 1-1v-3a1 1 0 0 0-1-1h-3z"/>
    <path d="M5 9h1.3A2.7 2.7 0 0 0 9 6.3V5h3.5A2.5 2.5 0 0 1 15 7.5V11h-1.3a2.7 2.7 0 0 0-2.7 2.7V15H7.5A2.5 2.5 0 0 1 5 12.5V9z"/>
    <path d="M1 3a2 2 0 0 1 2-2h3a2 2 0 0 1 2 2v3a2 2 0 0 1-2 2H3a2 2 0 0 1-2-2V3zm2-1a1 1 0 0 0-1 1v3a1 1 0 0 0 1 1h3a1 1 0 0 0 1-1V3a1 1 0 0 0-1-1H3z"/>
  </g>
</svg>